# xmcd CD database file
#
# Track frame offsets:
#	187
#	19265
#	57662
#	83097
#	104827
#	124405
#	164107
#
# Disc length: 2323 seconds
#
# Revision: 0
# Processed by: cddbd v1.4PL0 Copyright (c) Steve Scherf et al.
# Submitted via: CDex 1.50Beta5
#
DISCID=68091107
DTITLE=Oliver Nelson - Big Band Live from Los Angeles
DYEAR=1967
DGENRE=Jazz
TTITLE0=Miss Fine
TTITLE1=Milestones
TTITLE2=I Remember Bird
TTITLE3=Night Train
TTITLE4=Guitar Blues
TTITLE5=Down By The Riverside
TTITLE6=Ja-da
EXTD=YEAR: 1967
EXTT0=
EXTT1=
EXTT2=
EXTT3=
EXTT4=
EXTT5=
EXTT6=
PLAYORDER=
